<svg width="32" height="32" viewBox="0 0 32 32" fill="none" xmlns="http://www.w3.org/2000/svg">
<path d="M19.9993 30.3334H11.9993C4.75935 30.3334 1.66602 27.2401 1.66602 20.0001V12.0001C1.66602 4.76008 4.75935 1.66675 11.9993 1.66675H19.9993C27.2393 1.66675 30.3327 4.76008 30.3327 12.0001V20.0001C30.3327 27.2401 27.2393 30.3334 19.9993 30.3334ZM11.9993 3.66675C5.85268 3.66675 3.66602 5.85341 3.66602 12.0001V20.0001C3.66602 26.1467 5.85268 28.3334 11.9993 28.3334H19.9993C26.146 28.3334 28.3327 26.1467 28.3327 20.0001V12.0001C28.3327 5.85341 26.146 3.66675 19.9993 3.66675H11.9993Z" fill="#D5D5D5"/>
<path d="M14.1059 20.7732C13.8393 20.7732 13.5859 20.6666 13.3993 20.4799L9.62594 16.7066C9.23927 16.3199 9.23927 15.6799 9.62594 15.2932C10.0126 14.9066 10.6526 14.9066 11.0393 15.2932L14.1059 18.3599L20.9593 11.5066C21.3459 11.1199 21.9859 11.1199 22.3726 11.5066C22.7593 11.8932 22.7593 12.5332 22.3726 12.9199L14.8126 20.4799C14.6259 20.6666 14.3726 20.7732 14.1059 20.7732Z" fill="#D5D5D5"/>
</svg>
