<svg width="32" height="32" viewBox="0 0 32 32" fill="none" xmlns="http://www.w3.org/2000/svg">
<path d="M21.588 2.6665H10.4146C5.5613 2.6665 2.66797 5.55984 2.66797 10.4132V21.5732C2.66797 26.4398 5.5613 29.3332 10.4146 29.3332H21.5746C26.428 29.3332 29.3213 26.4398 29.3213 21.5865V10.4132C29.3346 5.55984 26.4413 2.6665 21.588 2.6665ZM22.3746 12.9332L14.8146 20.4932C14.628 20.6798 14.3746 20.7865 14.108 20.7865C13.8413 20.7865 13.588 20.6798 13.4013 20.4932L9.62797 16.7198C9.2413 16.3332 9.2413 15.6932 9.62797 15.3065C10.0146 14.9198 10.6546 14.9198 11.0413 15.3065L14.108 18.3732L20.9613 11.5198C21.348 11.1332 21.988 11.1332 22.3746 11.5198C22.7613 11.9065 22.7613 12.5332 22.3746 12.9332Z" fill="#2ECC71"/>
</svg>
