<svg width="24" height="24" viewBox="0 0 24 24" fill="none" xmlns="http://www.w3.org/2000/svg">
<path d="M5.01001 5.52783C10.2845 4.99245 15.6386 5.19979 21.0208 5.72803H21.0217C21.1527 5.74103 21.256 5.86245 21.2424 6.00146L21.2415 6.01123C21.2322 6.13109 21.1285 6.22981 21.0002 6.22998H20.9397C15.9724 5.73347 10.999 5.52546 6.05884 5.94092L5.06958 6.03271L3.03149 6.23193C2.88155 6.24571 2.7606 6.14197 2.74731 6.00244C2.73345 5.85596 2.83388 5.74137 2.96802 5.72803H2.96899L5.00903 5.52783H5.01001Z" fill="white" stroke="#2E2E2E"/>
<path d="M10.6897 1.75H13.3098C14.3757 1.75 14.8501 2.05874 15.095 2.36621C15.3676 2.70864 15.4485 3.152 15.5266 3.63086V3.63379L15.7473 4.93359V4.93457C15.7711 5.0755 15.6716 5.19845 15.5559 5.21582L15.5461 5.2168C15.405 5.24089 15.2823 5.1412 15.2649 5.02539L15.2629 5.0166L15.0432 3.7168H15.0422C15.0091 3.51085 14.9773 3.30599 14.929 3.13477C14.8786 2.95649 14.7963 2.7561 14.6262 2.59277C14.4534 2.42696 14.2425 2.34965 14.0334 2.30957C13.8305 2.27071 13.5902 2.25977 13.3196 2.25977H10.7004C10.4327 2.25977 10.1948 2.26858 9.99536 2.30371C9.7902 2.33989 9.57712 2.4119 9.40161 2.57617C9.22864 2.73819 9.14657 2.93914 9.09595 3.11621C9.04724 3.28657 9.01317 3.4931 8.97778 3.70312L8.74731 5.00293L8.74634 5.00977C8.72653 5.13194 8.62068 5.21961 8.50024 5.21973H8.46802L8.4563 5.21777L8.40845 5.2041C8.30134 5.1609 8.23373 5.04324 8.2522 4.93652L8.25317 4.93262L8.4729 3.62305V3.62207C8.55626 3.12189 8.63906 2.68382 8.90942 2.34961C9.15211 2.04978 9.62355 1.75006 10.6897 1.75Z" fill="white" stroke="#2E2E2E"/>
<path d="M15.2099 22.75H8.7899C5.2999 22.75 5.1599 20.82 5.0499 19.26L4.3999 9.19001C4.3699 8.78001 4.6899 8.42001 5.0999 8.39001C5.5199 8.37001 5.8699 8.68001 5.8999 9.09001L6.5499 19.16C6.6599 20.68 6.6999 21.25 8.7899 21.25H15.2099C17.3099 21.25 17.3499 20.68 17.4499 19.16L18.0999 9.09001C18.1299 8.68001 18.4899 8.37001 18.8999 8.39001C19.3099 8.42001 19.6299 8.77001 19.5999 9.19001L18.9499 19.26C18.8399 20.82 18.6999 22.75 15.2099 22.75Z" fill="#292D32"/>
<path d="M13.6601 17.25H10.3301C9.92008 17.25 9.58008 16.91 9.58008 16.5C9.58008 16.09 9.92008 15.75 10.3301 15.75H13.6601C14.0701 15.75 14.4101 16.09 14.4101 16.5C14.4101 16.91 14.0701 17.25 13.6601 17.25Z" fill="#292D32"/>
<path d="M14.5 13.25H9.5C9.09 13.25 8.75 12.91 8.75 12.5C8.75 12.09 9.09 11.75 9.5 11.75H14.5C14.91 11.75 15.25 12.09 15.25 12.5C15.25 12.91 14.91 13.25 14.5 13.25Z" fill="#292D32"/>
</svg>
